<svg xmlns="http://www.w3.org/2000/svg" viewBox="0 0 1495 748"><defs><filter id="a" width="300%" height="300%" x="-100%" y="-100%"><feGaussianBlur in="SourceAlpha" stdDeviation="10"/><feOffset dx="5" dy="5" result="offsetblur"/><feFlood flood-color="rgba(0,0,0,0.8)"/><feComposite in2="offsetblur" operator="in"/><feMerge><feMergeNode/><feMergeNode in="SourceGraphic"/></feMerge></filter></defs><g data-name="Layer 2"><g fill="#fff"><path d="M1121.5 562.1c-13 0-20-5.1-23.6-9.5-3.6-4.5-7.3-12.6-4.5-26l10-45.8 1.2-5.5h60.8l-9.7 48.6 25.2-.2 11.5-56.6h-53.8a25.7 25.7 0 0 1-20.5-8.8c-5-6-7.2-14.9-5.8-23.7 3-17 32.6-162.6 34-168.8l1-5.6 60.4.2-31 156.4 25.7-.2 30.3-156.4h62.7l-1.8 8.4-54.7 266.8v.2A36.1 36.1 0 0 1 1203 562h-37.5l-41.8.1z"/><path d="M1286.8 267.2S1236 514.6 1232 534c-3.4 13.5-16.5 21-29 21l-79.3.1h-2.2c-16.9 0-24.8-10-21.2-27 3.1-15 10-45.8 10-45.8h46.5l-9.7 48.6 39.5-.2 14.3-70.6h-62.3c-16.2 0-21.2-13.2-19.4-24.3 3-17.2 33.9-168.6 33.9-168.6l46.1.2-31 156.5 40-.3 30.3-156.4h48.3m-145.2-14l-2.3 11.2c-1.2 6.2-31 151.8-33.9 169-1.8 11 .9 21.8 7.3 29.5a31 31 0 0 0 6 5.5H1099l-2.5 11-10 45.7c-3.3 16.2 1.4 26.3 6 32 4.5 5.4 13.1 12 29 12h44l37.5-.1a43 43 0 0 0 42.6-31.7v-.2l.1-.2 54.8-266.8 3.4-16.9h-77l-2.2 11.4-28.1 145-11.3.2 27.6-139.7 3.3-16.6-17-.1-46-.2h-11.6zm145.2 0zm0 28zm-114 192.9h11l-8.6 42.7h-11l6.4-31.7 2.2-11z" filter="url(#a)"/><path d="M850.9 466.9l-23.1-47.6-10.3 47.5h-83.6l52-258.6h84.2l-7.4 36.6 36.2-36.7h107.2l-116.7 120 63.3 138.8H850.9z"/><path d="M989.6 215.1L881 326.7l60.8 133.2h-86.5l-30-62-13.4 62h-69.5l49.3-244.7h69.8l-10.3 51.2 50.6-51.3h87.8M1022.7 201.1H896l-4.2 4.2-17.6 17.9 1-5.2 3.4-16.8h-98.4l-2.3 11.2-49.2 244.7-3.4 16.7h97.9l2.4-11 4.7-22.2 12.4 25.4 3.8 8h117l-9-19.9-56.7-124.5 101.8-104.7 23.1-23.8zm-33.1 28z" filter="url(#a)"/><path d="M478.8 562H425.8c-8.5 0-16.1-3.2-21-9-3.3-4-7-11.2-5-22.4 2.5-13.6 9.8-48.4 10.1-50l1.2-5.5h61L462 525h24l12.6-58.2-54.9.2h-.1a25.5 25.5 0 0 1-19.7-8.7 25 25 0 0 1-5-20.7c1.4-7.8 7.5-39.1 14-72.3 6.5-33.4 13.2-68 14.3-74.6a37.4 37.4 0 0 1 35.1-30.7h120.3l-1.7 8.4c-2.2 10.6-53 259-54.2 264.2-3.8 18-21.4 29-36.3 29.3l-31.7.2zm30.8-153l19-94.6h-25.4L484 408.6z"/><path d="M584.5 267h9.6L540 531.2a31.7 31.7 0 0 1-29.6 23.7l-31.6.2h-53c-11 0-21.9-7.4-19-23.2 2.4-13.7 10-49.8 10-49.8h46.8l-10 49.9h38.2l15.6-72.2-63.6.2h-.1c-10.4 0-20.2-7.5-17.8-21.2 2.7-15.8 26.1-134 28.3-147a30.3 30.3 0 0 1 28.2-24.8h102.1m-69.2 149L537 307.4h-39.6l-22 108.2 39.8.4m69.2-163H482.4a41.9 41.9 0 0 0-27.2 10.6 44.1 44.1 0 0 0-14.8 26c-1 6.4-7.8 41-14.3 74.4-6.5 33.2-12.6 64.5-14 72.4-1.7 10 .6 19.3 6.5 26.4a30.3 30.3 0 0 0 5.8 5.3h-19l-2.3 11.1c-.4 1.5-7.6 36.5-10.1 50.2a33 33 0 0 0 6.5 28 33.9 33.9 0 0 0 26.3 11.6h53l31.8-.1a45.6 45.6 0 0 0 26.8-9.6 43.3 43.3 0 0 0 16.3-25.2l54.1-264.3 3.5-16.8h-26.8zM509 321.4h11l-16 80.5-11.3-.2 16.3-80.3zm-29.4 152.5H490l-9.6 44h-9.8l6.6-33 2.2-11z" filter="url(#a)"/><path d="M202.5 208H340c12.4 0 19 5 22.4 9 3.3 4.2 6.8 11.5 4.4 23.4l-40 196.7a41.5 41.5 0 0 1-30.4 28.9 106.6 106.6 0 0 1-14 1H150.2zM258.3 409l28.2-137.7h-23.7L235 408.9z"/><path d="M339.4 215h.6c15.3 0 23 9 20 24a107958 107958 0 0 0-40 196.7c-2 10.4-14.2 21.5-24.8 23.4a104.1 104.1 0 0 1-12.8.9H158.7l49.5-245h131.2m-113 200.9H264l31-151.7h-38l-30.6 151.7M340 201H196.8l-2.3 11.3-49.5 245-3.4 16.7h140.9a110.5 110.5 0 0 0 15.2-1.1 46.4 46.4 0 0 0 22.6-12 43 43 0 0 0 13.4-22.4c3.7-18.9 35.4-174.4 40-196.7 2.9-14.5-1.6-23.9-6-29.1-4.3-5.4-12.6-11.7-27.7-11.7zm-71.5 77.2h9.4l-25.3 123.7h-9l25-123.7z" filter="url(#a)"/><path d="M977.9 467a25 25 0 0 1-19.5-9 25.6 25.6 0 0 1-5.1-21.5c.3-1.4 27.2-141.8 30.9-153.9 3.4-11.2 18.3-22.6 29.5-22.6H1040.6l25.3.1c14.3 0 25.9 0 36.6-.2h.5c9.2 0 17 3.4 21.9 9.5a29 29 0 0 1 4.7 24.8c-4.2 19.3-21.7 107.2-21.9 108l-1.1 5.7h-84.8l-2.1 8.9h83.5l-.8 7.7c-2.7 25.7-18 42.4-38.9 42.5h-85.4zm55.3-116h24.5l7.3-36.9h-24.2z"/><path d="M1103 266.9c14.7 0 23 10.6 19.8 25.8-4.3 19.6-22 108.2-22 108.2h-84.5l-5.5 22.9h84.7c-2.2 20.1-13.4 36-32 36.2h-85.6a18 18 0 0 1-17.7-22.1c4.3-22.8 27.5-142.8 30.7-153.2 2.4-8 14.3-17.7 22.8-17.7h1.6l50.6.1c12.3 0 24.5 0 36.7-.2h.4m-78.4 91.1h38.8l10.1-50.9h-38.4l-10.5 50.9m78.4-105.1h-.6l-36.5.2h-25.2l-25.4-.1h-1.6c-9.7 0-18.2 5.5-22.4 8.8-4 3.2-11 9.8-13.8 18.8-3.8 12.6-30.8 153.2-31 154.6-2 10.2.3 19.9 6.5 27.4A32 32 0 0 0 978 474h.2l29-.1h56.5a42.4 42.4 0 0 0 32.8-15.7c7.1-8.5 11.6-20 13-33l1-10.4h2l2.2-11.3c.1-.9 17.7-88.7 21.8-108 2.6-11.7.4-22.6-6-30.6a34 34 0 0 0-27.4-12.1zm-56.5 68.2h10L1052 344h-10.2l4.7-22.8z" filter="url(#a)"/><path d="M331.7 466.5l40.7-206.3h70.3L401 466.5h-69.3z"/><path d="M434.2 267.2l-38.9 192.3h-55.1l38-192.3h56m17-14h-84.6l-2.2 11.3-38 192.3-3.2 16.7h83.6l2.2-11.2L448 270l3.4-16.8zm-17 28z" filter="url(#a)"/><path d="M572.2 466.8l41.7-206.6h69.7l-41.8 206.6h-69.6z"/><path d="M675 267.2l-39 192.6h-55.2l38.9-192.6H675m17.1-14h-83.9l-2.3 11.2L567.2 457l-3.4 16.8h83.8l2.3-11.2 39-192.6 3.3-16.8zm-17 28z" filter="url(#a)"/><path d="M665.2 407.8l16.4-82.6h69.9l-16.9 82.6h-69.4z"/><path d="M742.9 332.2l-14 68.6h-55.1l13.5-68.6H743m17.1-14h-84.2l-2.2 11.2-13.6 68.7-3.3 16.7h83.6l2.3-11.2 14-68.6 3.4-16.8zm-17.1 28z" filter="url(#a)"/><path d="M372.9 253.8l9.4-45.6h71.1l-9.7 45.6h-70.8z"/><path d="M444.7 215.2l-6.7 31.6h-56.5l6.5-31.6h56.7m17.3-14h-85.4l-2.3 11.2-6.5 31.5-3.5 16.9h85l2.4-11.1 6.7-31.5 3.6-17zm-17.3 28z" filter="url(#a)"/><path d="M614.9 253.8l10.8-45.6H694l-9.5 45.6h-69.6z"/><path d="M685.4 215.2l-6.6 31.6h-55l7.4-31.6h54.2m17.1-14h-82.4l-2.5 10.8-7.5 31.6-4 17.2h84.1l2.3-11.1 6.6-31.7 3.4-16.8zm-17.1 28z" filter="url(#a)"/></g><path fill="maroon" d="M1495 389c-2.1 3.1-1.4 6.9-1.8 10.2a195.2 195.2 0 0 1-12.4 48.2 257.9 257.9 0 0 1-38.4 65.3 369 369 0 0 1-43.7 45.3 531 531 0 0 1-58 43.7 525 525 0 0 1-52.6 30.7 834.6 834.6 0 0 1-73.6 33.7c-18 7.3-36.5 13.4-54.8 20-26.3 9.3-53.2 16.3-80.1 23.4a596.3 596.3 0 0 1-54 11.6c-12.8 2.1-25.4 5.3-38 7.6-9.8 1.8-19.7 2.9-29.5 4.3-11.3 1.6-22.5 3.4-33.8 4.9-6.8.9-13.7 1.4-20.5 2-13.7 1.4-27.4 2.9-41 4-5.8.5-11.6.6-17.3 1-15.5.7-31 2.6-46.5 2.1-.8 0-1.7-.1-2 1h-99c-.3-1.1-1.2-1-2-1-10.7.8-21.5-.7-32.2-1.2-16-.7-32-2.5-48-3.8-8.4-.7-16.8-1.1-25.1-2-9.7-1-19.4-2.7-29.1-3.7-8-.7-15.8-1.9-23.7-3.2-7.6-1.3-15.2-1.9-22.7-3.2-12.2-2-24.2-4.7-36.3-6.8q-22.2-4-44.2-9.1c-25.4-5.8-50.6-12.6-75.6-20.2-23.4-7-46.6-14.7-69.2-24-16.7-6.8-33.6-13-49.8-21-15.8-7.8-31.6-15.4-47-23.9a489.4 489.4 0 0 1-54.1-33.8h4.6c5 2.4 10.6 4 15.7 6.4 7 3.4 14.5 6.1 20.6 11.3.5.4 1 1 1.5 1 9 2.2 16.2 8.1 24.5 11.5 11.6 4.7 22.5 10.8 34 15.5 9.9 4 19.5 8.6 29.4 12.7 10.9 4.4 22 8.3 33.2 12.2 12 4.2 24.2 8.5 36.5 12 13.3 4 26.5 8 39.8 11.6 13.4 3.5 26.8 7 40.2 10.2 10.3 2.5 20.9 4.5 31.3 6.8 16 3.6 32.3 6.5 48.4 9.2 15.4 2.6 31 5 46.5 6.8 11.3 1.2 22.5 3.2 33.8 4.4a1793.6 1793.6 0 0 0 79 6.1c6.6.3 13.2 1 19.9 1.3 31.4 1.3 62.9 1.2 94.3.7 12.6-.2 25.3.1 37.8-1 12.3-1.2 24.6-.8 36.7-2 15.6-1.7 31.2-3 46.8-4.4 11.2-1 22.2-3.2 33.5-3.6 10-.4 19.9-2.8 29.8-4.2 8.2-1.2 16.4-2 24.4-3.7 8.4-2 16.8-3.3 25.3-4.7 15-2.5 30-6.1 45-9.2 11.5-2.4 23.1-4.6 34.3-8.2 14.2-4.6 28.8-8 43.1-12.4 14.7-4.4 29-9.5 43.7-14 9.7-2.8 18.9-7.5 28.4-10.9a510.6 510.6 0 0 0 42.8-18c13.1-6 26.4-11.8 39-18.8 10.8-5.9 21.4-12 32-18.3a470 470 0 0 0 32.4-21 463.3 463.3 0 0 0 49.9-40.7 323.8 323.8 0 0 0 41.3-47.7 243.5 243.5 0 0 0 23.5-41.7 201.7 201.7 0 0 0 12.6-39.8 155.6 155.6 0 0 0 3.6-29.4 216 216 0 0 0-6.3-63.5 266 266 0 0 0-15.3-43.2c-2.6-5.4-3.6-11.4-6.8-16.5-.3-.5.4-1.7.6-2.4 1.9-.7 2.4 1.3 3.7 1.4 5.9 5.3 9.1 12.5 12.9 19.2 10 17.8 18.2 36.5 22.8 56.6 2 9.2 4.2 18.7 4.3 28.3 0 .8-.1 1.7 1 2z"/><path fill="#c00" d="M1476.3 328.4a304 304 0 0 0-11.8-41.7c-3.8-10.9-9.4-21-12.4-31.9.4-1.2 1.4-1.3 2-1.7 1.3-3-1-4.7-2.3-6.6a352.9 352.9 0 0 0-67-69.6c-21-17-43.6-31.8-66.8-45.7a716.4 716.4 0 0 0-92.4-46 954.7 954.7 0 0 0-124.4-42A1224 1224 0 0 0 923.7 9.4q-39.9-5.1-80-7.6A770 770 0 0 0 791.3.5c-1.7 0-3.6.6-5.3-.5h-78c-8.9 1.4-17.9.6-26.8.8-21.7.6-43.2 1.7-64.8 3.8a1508.5 1508.5 0 0 0-152.7 22c-29 6.2-57.8 13-86.4 21.1a988.4 988.4 0 0 0-99.2 34 745.6 745.6 0 0 0-102.2 50.1 575.4 575.4 0 0 0-71 50.1 370.9 370.9 0 0 0-54.1 55.2A255.7 255.7 0 0 0 23 279.2a192 192 0 0 0-22.2 68c-.5 4.3.5 8.6-.8 12.8v28a2.3 2.3 0 0 1 .5 1.8c-.8 17.4 4.1 33.6 9.6 49.7 11.2 32.8 29.9 61 52.7 86.8 21.6 24.2 46 45.2 72.3 64a9.1 9.1 0 0 0 4.5 2c1.3.1 2.8-.1 4 .5 7.4 4 16 5.4 23.3 10a105 105 0 0 0 15.2 8.4c12 5 23.2 11.7 35 17 13.2 5.7 26.1 11.8 39.3 17.4 11.5 4.9 23.4 8.8 35 13.3 25.7 10 52 18 78.4 25.4 18.6 5.2 37.4 9.6 56.2 14.1 24.3 5.9 48.9 10.5 73.5 14.7a1397 1397 0 0 0 66.7 9.5c17.4 2 34.8 3.2 52.2 4.8 11.8 1 23.6 1.5 35.3 2.4 15.3 1.2 30.6 2 45.9 2.4a2104.6 2104.6 0 0 0 111.4-1c21.5-2.6 43.2-2.3 64.7-4.6 19.9-2.2 39.8-4 59.6-6.6q30.1-4.1 60.2-9.3c22.8-4 45.4-9 68-14 14.6-3.3 29-7.6 43.4-11.4 22.8-6 45-13.3 67.2-21q32.6-11.4 64-25.6a633.1 633.1 0 0 0 121.2-69.4 419.4 419.4 0 0 0 46.1-39.8c20-20 37.1-42.3 50.4-67.4a199 199 0 0 0 22.3-68.6c2.7-21.6 2.5-43.5-1.8-65.1zm-37.1 65a167.4 167.4 0 0 1-18 56 199.6 199.6 0 0 1-30.2 43.2c-1.8 1.9-3.3 4-5.1 6a381.4 381.4 0 0 1-73.7 59.3 610.2 610.2 0 0 1-50.7 28.4 822 822 0 0 1-96.5 41 1062 1062 0 0 1-164 43.5c-17.3 3.4-34.7 5.5-52 8.2a860.6 860.6 0 0 1-49.1 6.1c-13.9 1.4-27.7 2.9-41.6 4-10.5.8-21 1.2-31.5 2-23.9 2-47.7 1.9-71.6 1.9-10.3 0-20.6-.3-31 0-16 .6-32.1-.8-48.2-1.1-14.6-.3-29.2-1.7-43.8-3-16.5-1.4-33-2.9-49.3-5a1253.7 1253.7 0 0 1-148.4-26.6 984.8 984.8 0 0 1-94.8-27.3q-37-12.9-72.7-28.8a612.4 612.4 0 0 1-49.5-24.5 503 503 0 0 1-65-42.5c-8.9-7-17.8-13.9-25.8-21.6-16.5-16-33.8-31.5-45-52.2-1-1.7-3-3-4.6-4.4a5.7 5.7 0 0 1-2.8-3.4c-8-18-15.7-36-18.8-55.6-4.7-30.2.6-58.8 12.7-86.3a227.5 227.5 0 0 1 46.5-67A424.9 424.9 0 0 1 216 169a808.8 808.8 0 0 1 176.5-69.2c58-16 116.9-26.7 176.5-34.3q34.2-4.4 68.5-6.9c17-1.2 33.9-2.3 50.9-3 22.8-1.1 45.6-2.2 68.3-1.6 24 .7 48 .3 71.9 2.4 16 1.4 32.2 2.1 48.3 3.5a1371.7 1371.7 0 0 1 171.7 26.6 1095.5 1095.5 0 0 1 125.7 36.6c21.8 7.8 43 17.3 64.3 26.2 19.8 8.1 38.1 19 57.1 28.5 1.8.9 3.7 1.8 3.5 4.3 4.1 5.7 10.8 8 16.3 11.7 27.2 18 52.6 38 74.4 62.2a191 191 0 0 1 39.5 61.8 192.4 192.4 0 0 1 10.3 41.5 131.7 131.7 0 0 1-.5 34.3z"/><path fill="maroon" d="M1299.2 182a62.6 62.6 0 0 0-16-9.8 212.9 212.9 0 0 1-24.2-12.6c-6-3.7-12.9-5.8-19.4-8.4-13.8-5.6-27.1-11.9-40.9-17.4-24.2-9.7-48.9-18-73.8-25.7q-33.5-10.3-67.7-18c-14.5-3.4-29-7-43.6-9.8-16.5-3.2-33.1-5.6-49.7-8.3-12.4-2-24.8-4.3-37.2-5.9-10.8-1.4-21.6-2.1-32.3-3.1l-53.6-5c-5.8-.4-11.6-.6-17.3-.8-13.6-.5-27.2-1.6-40.8-1.3-16 .4-31.8-1.4-47.8-.8-20.2.9-40.4 1-60.6 2-14.3.6-28.7 1.5-43 3-18 1.9-36.3 3.4-54.4 5.7a1662 1662 0 0 0-53 7.4c-15.9 2.5-31.8 5.5-47.7 8.5-25.8 4.8-51.2 10.9-76.5 17.4a926.4 926.4 0 0 0-147.5 53c-27 12.7-53.3 27-78 43.9a436.9 436.9 0 0 0-38.3 29.4 349.6 349.6 0 0 0-28.8 28.3 215.5 215.5 0 0 0-31 44c-8 14.6-14.2 30-17.5 46.3a135.8 135.8 0 0 0-3 41.5 195.3 195.3 0 0 0 7.5 36.7 92.8 92.8 0 0 0 6.8 17c2.9 5.4 4.7 11.2 7.2 16.8-1.4 5.1 2.2 9.4 2.9 14.6-7.4-4-10.5-11.2-15.1-17a138.4 138.4 0 0 1-16-28.2 136.4 136.4 0 0 1-7.1-18.7 150.6 150.6 0 0 1-3.8-19.3c-1.3-8.1-1-16.2-1-24.4 0-9.3 1.6-18.3 3.5-27.4a176 176 0 0 1 14-39.4 214 214 0 0 1 28.3-43.5 330.7 330.7 0 0 1 45.8-45.7 367.3 367.3 0 0 1 41-29.9c9.3-5.7 18.3-11.9 27.8-17.2 14.8-8.2 29.4-16.8 45-23.4 10.5-4.4 20.5-10 31-14.2 14.2-5.7 28.3-11.5 42.6-16.7 15.7-5.6 31.7-10.6 47.6-15.9a529 529 0 0 1 48.3-13.6c14.9-3.5 29.7-7.3 44.7-10.3 17.7-3.5 35.3-7.8 53.3-10 13.3-1.6 26.5-5 40-6.4 9.4-1.1 18.8-2.9 28.4-3.5 12-.8 24-2.6 35.9-3.8l28.2-2.1c15.7-1.2 31.4-1.8 47.2-2.3 7-.2 14.2-.7 21.3-.6 13.8.1 27.6-2.1 41.4-1 12 1 23.9.2 35.8 1 13.7 1 27.5.5 41.2 2 17.7 2 35.6 2 53.3 4.7 10.6 1.6 21.3 2 32 3.3 12.5 1.5 25 3.8 37.6 5.4 16.8 2.3 33.4 5.5 50.1 8.6a648 648 0 0 1 39.5 8.4c14.7 3.7 29.5 7 44 11.1 16.8 4.8 33.4 9.8 50 15.1 17.2 5.5 34 12.2 51 18.5 12.2 4.5 24 9.8 36 15 9.8 4.4 19 10.2 28.9 14.8a434 434 0 0 1 40.8 22.9c10.6 6.5 20.2 14.6 30 22.6-5.9-1.9-11.7-3.5-17.1-6.2a10.4 10.4 0 0 0-6.2-1.3z"/><path fill="#fe7e7e" d="M1454.6 417.2a27 27 0 0 1-1.4 12.7c-6.5 22.8-17.6 43-32 61.7a339 339 0 0 1-23 26.6c-12 12.7-25.3 24-39 34.8a534 534 0 0 1-102 60.8 843.2 843.2 0 0 1-67.7 28c-12.2 4.4-24.6 8-36.8 12.2a293.4 293.4 0 0 1-33 9 20.7 20.7 0 0 1-3.7 0c13.3-7.5 27.5-10.7 40.8-16.3 12.7-5.3 25.6-10 38.2-15.4a695.1 695.1 0 0 0 114.3-58.7 590 590 0 0 0 52.5-38.2c6.7-5.5 13-11.7 19.3-17.7q9-8.6 17.4-17.8a307.2 307.2 0 0 0 30.5-39.5c6.2-9.5 11.3-19.6 17-29.4a50.3 50.3 0 0 0 4-9.5c.6-2 1.7-3.6 4.6-3.3zM372.3 67.4c-6.6 3.9-14.1 5-21.1 7.5-32.2 11.6-64.4 23-95.5 37.4a737.7 737.7 0 0 0-71.4 37.6 594.2 594.2 0 0 0-66.7 47.1 323 323 0 0 0-61 66.1 292.7 292.7 0 0 0-28.5 53c-1 2.4-2.6 4.6-3.2 7.3-2-5.4.2-10.3 1.6-15.2a188.5 188.5 0 0 1 20.4-46.8 281.6 281.6 0 0 1 52.7-62.2A384 384 0 0 1 147 163a641.4 641.4 0 0 1 92.7-50.6c22-9.8 44.3-18.5 67-26.4a467.8 467.8 0 0 1 65.6-18.6z"/><g><path fill="#c00" d="M1121.5 562.1c-13 0-20-5.1-23.6-9.5-3.6-4.5-7.3-12.6-4.5-26l10-45.8 1.2-5.5h60.8l-9.7 48.6 25.2-.2 11.5-56.6h-53.8a25.7 25.7 0 0 1-20.5-8.8c-5-6-7.2-14.9-5.8-23.7 3-17 32.6-162.6 34-168.8l1-5.6 60.4.2-31 156.4 25.7-.2 30.3-156.4h62.7l-1.8 8.4-54.7 266.8v.2A36.1 36.1 0 0 1 1203 562h-37.5l-41.8.1z"/><path fill="#fff" d="M1286.8 267.2S1236 514.6 1232 534c-3.4 13.5-16.5 21-29 21l-79.3.1h-2.2c-16.9 0-24.8-10-21.2-27 3.1-15 10-45.8 10-45.8h46.5l-9.7 48.6 39.5-.2 14.3-70.6h-62.3c-16.2 0-21.2-13.2-19.4-24.3 3-17.2 33.9-168.6 33.9-168.6l46.1.2-31 156.5 40-.3 30.3-156.4h48.3m-145.2-14l-2.3 11.2c-1.2 6.2-31 151.8-33.9 169-1.8 11 .9 21.8 7.3 29.5a31 31 0 0 0 6 5.5H1099l-2.5 11-10 45.7c-3.3 16.2 1.4 26.3 6 32 4.5 5.4 13.1 12 29 12h44l37.5-.1a43 43 0 0 0 42.6-31.7v-.2l.1-.2 54.8-266.8 3.4-16.9h-77l-2.2 11.4-28.1 145-11.3.2 27.6-139.7 3.3-16.6-17-.1-46-.2h-11.6zm145.2 0zm0 28zm-114 192.9h11l-8.6 42.7h-11l6.4-31.7 2.2-11z"/><path fill="#c00" d="M850.9 466.9l-23.1-47.6-10.3 47.5h-83.6l52-258.6h84.2l-7.4 36.6 36.2-36.7h107.2l-116.7 120 63.3 138.8H850.9z"/><path fill="#fff" d="M989.6 215.1L881 326.7l60.8 133.2h-86.5l-30-62-13.4 62h-69.5l49.3-244.7h69.8l-10.3 51.2 50.6-51.3h87.8M1022.7 201.1H896l-4.2 4.2-17.6 17.9 1-5.2 3.4-16.8h-98.4l-2.3 11.2-49.2 244.7-3.4 16.7h97.9l2.4-11 4.7-22.2 12.4 25.4 3.8 8h117l-9-19.9-56.7-124.5 101.8-104.7 23.1-23.8zm-33.1 28z"/><path fill="#c00" d="M478.8 562H425.8c-8.5 0-16.1-3.2-21-9-3.3-4-7-11.2-5-22.4 2.5-13.6 9.8-48.4 10.1-50l1.2-5.5h61L462 525h24l12.6-58.2-54.9.2h-.1a25.5 25.5 0 0 1-19.7-8.7 25 25 0 0 1-5-20.7c1.4-7.8 7.5-39.1 14-72.3 6.5-33.4 13.2-68 14.3-74.6a37.4 37.4 0 0 1 35.1-30.7h120.3l-1.7 8.4c-2.2 10.6-53 259-54.2 264.2-3.8 18-21.4 29-36.3 29.3l-31.7.2zm30.8-153l19-94.6h-25.4L484 408.6z"/><path fill="#fff" d="M584.5 267h9.6L540 531.2a31.7 31.7 0 0 1-29.6 23.7l-31.6.2h-53c-11 0-21.9-7.4-19-23.2 2.4-13.7 10-49.8 10-49.8h46.8l-10 49.9h38.2l15.6-72.2-63.6.2h-.1c-10.4 0-20.2-7.5-17.8-21.2 2.7-15.8 26.1-134 28.3-147a30.3 30.3 0 0 1 28.2-24.8h102.1m-69.2 149L537 307.4h-39.6l-22 108.2 39.8.4m69.2-163H482.4a41.9 41.9 0 0 0-27.2 10.6 44.1 44.1 0 0 0-14.8 26c-1 6.4-7.8 41-14.3 74.4-6.5 33.2-12.6 64.5-14 72.4-1.7 10 .6 19.3 6.5 26.4a30.3 30.3 0 0 0 5.8 5.3h-19l-2.3 11.1c-.4 1.5-7.6 36.5-10.1 50.2a33 33 0 0 0 6.5 28 33.9 33.9 0 0 0 26.3 11.6h53l31.8-.1a45.6 45.6 0 0 0 26.8-9.6 43.3 43.3 0 0 0 16.3-25.2l54.1-264.3 3.5-16.8h-26.8zM509 321.4h11l-16 80.5-11.3-.2 16.3-80.3zm-29.4 152.5H490l-9.6 44h-9.8l6.6-33 2.2-11z"/><path fill="#c00" d="M202.5 208H340c12.4 0 19 5 22.4 9 3.3 4.2 6.8 11.5 4.4 23.4l-40 196.7a41.5 41.5 0 0 1-30.4 28.9 106.6 106.6 0 0 1-14 1H150.2zM258.3 409l28.2-137.7h-23.7L235 408.9z"/><path fill="#fff" d="M339.4 215h.6c15.3 0 23 9 20 24a107958 107958 0 0 0-40 196.7c-2 10.4-14.2 21.5-24.8 23.4a104.1 104.1 0 0 1-12.8.9H158.7l49.5-245h131.2m-113 200.9H264l31-151.7h-38l-30.6 151.7M340 201H196.8l-2.3 11.3-49.5 245-3.4 16.7h140.9a110.5 110.5 0 0 0 15.2-1.1 46.4 46.4 0 0 0 22.6-12 43 43 0 0 0 13.4-22.4c3.7-18.9 35.4-174.4 40-196.7 2.9-14.5-1.6-23.9-6-29.1-4.3-5.4-12.6-11.7-27.7-11.7zm-71.5 77.2h9.4l-25.3 123.7h-9l25-123.7z"/><path fill="#c00" d="M977.9 467a25 25 0 0 1-19.5-9 25.6 25.6 0 0 1-5.1-21.5c.3-1.4 27.2-141.8 30.9-153.9 3.4-11.2 18.3-22.6 29.5-22.6H1040.6l25.3.1c14.3 0 25.9 0 36.6-.2h.5c9.2 0 17 3.4 21.9 9.5a29 29 0 0 1 4.7 24.8c-4.2 19.3-21.7 107.2-21.9 108l-1.1 5.7h-84.8l-2.1 8.9h83.5l-.8 7.7c-2.7 25.7-18 42.4-38.9 42.5h-85.4zm55.3-116h24.5l7.3-36.9h-24.2z"/><path fill="#fff" d="M1103 266.9c14.7 0 23 10.6 19.8 25.8-4.3 19.6-22 108.2-22 108.2h-84.5l-5.5 22.9h84.7c-2.2 20.1-13.4 36-32 36.2h-85.6a18 18 0 0 1-17.7-22.1c4.3-22.8 27.5-142.8 30.7-153.2 2.4-8 14.3-17.7 22.8-17.7h1.6l50.6.1c12.3 0 24.5 0 36.7-.2h.4m-78.4 91.1h38.8l10.1-50.9h-38.4l-10.5 50.9m78.4-105.1h-.6l-36.5.2h-25.2l-25.4-.1h-1.6c-9.7 0-18.2 5.5-22.4 8.8-4 3.2-11 9.8-13.8 18.8-3.8 12.6-30.8 153.2-31 154.6-2 10.2.3 19.9 6.5 27.4A32 32 0 0 0 978 474h.2l29-.1h56.5a42.4 42.4 0 0 0 32.8-15.7c7.1-8.5 11.6-20 13-33l1-10.4h2l2.2-11.3c.1-.9 17.7-88.7 21.8-108 2.6-11.7.4-22.6-6-30.6a34 34 0 0 0-27.4-12.1zm-56.5 68.2h10L1052 344h-10.2l4.7-22.8z"/><path fill="#c00" d="M331.7 466.5l40.7-206.3h70.3L401 466.5h-69.3z"/><path fill="#fff" d="M434.2 267.2l-38.9 192.3h-55.1l38-192.3h56m17-14h-84.6l-2.2 11.3-38 192.3-3.2 16.7h83.6l2.2-11.2L448 270l3.4-16.8zm-17 28z"/><path fill="#c00" d="M572.2 466.8l41.7-206.6h69.7l-41.8 206.6h-69.6z"/><path fill="#fff" d="M675 267.2l-39 192.6h-55.2l38.9-192.6H675m17.1-14h-83.9l-2.3 11.2L567.2 457l-3.4 16.8h83.8l2.3-11.2 39-192.6 3.3-16.8zm-17 28z"/><path fill="#c00" d="M665.2 407.8l16.4-82.6h69.9l-16.9 82.6h-69.4z"/><path fill="#fff" d="M742.9 332.2l-14 68.6h-55.1l13.5-68.6H743m17.1-14h-84.2l-2.2 11.2-13.6 68.7-3.3 16.7h83.6l2.3-11.2 14-68.6 3.4-16.8zm-17.1 28z"/><path fill="#c00" d="M372.9 253.8l9.4-45.6h71.1l-9.7 45.6h-70.8z"/><path fill="#fff" d="M444.7 215.2l-6.7 31.6h-56.5l6.5-31.6h56.7m17.3-14h-85.4l-2.3 11.2-6.5 31.5-3.5 16.9h85l2.4-11.1 6.7-31.5 3.6-17zm-17.3 28z"/><path fill="#c00" d="M614.9 253.8l10.8-45.6H694l-9.5 45.6h-69.6z"/><path fill="#fff" d="M685.4 215.2l-6.6 31.6h-55l7.4-31.6h54.2m17.1-14h-82.4l-2.5 10.8-7.5 31.6-4 17.2h84.1l2.3-11.1 6.6-31.7 3.4-16.8zm-17.1 28z"/></g><g data-name="digi-key"><path fill="#c00" d="M1121.5 558.6c-9.3 0-16.5-2.8-20.9-8.2-4.4-5.5-5.8-13.5-3.7-23.1 3-14.8 9.8-45.4 9.9-45.7l.6-2.8h53.7l-9.7 48.6 32.4-.2 12.8-63.6h-58c-9.5 0-15-4-17.8-7.5a26 26 0 0 1-5-21c2.9-17 32.6-162.4 33.8-168.6l.6-2.8 53.3.2-31 156.5 32.8-.3 30.3-156.4h55.5l-.9 4.2-54.7 266.8a32.6 32.6 0 0 1-32.5 23.8h-37.5l-41.8.1z"/><path d="M1286.8 267.2S1236 514.6 1232 534c-3.4 13.5-16.5 21-29 21l-79.3.1h-2.2c-16.9 0-24.8-10-21.2-27 3.1-15 10-45.8 10-45.8h46.5l-9.7 48.6 39.5-.2 14.3-70.6h-62.3c-16.2 0-21.2-13.2-19.4-24.3a17708 17708 0 0 1 33.9-168.6l46.1.2-31 156.5 40-.3 30.3-156.4h48.3m-139.4-7l-1.2 5.6c-1.3 6.2-31 151.7-33.9 168.8-1.4 8.8.7 17.7 5.8 23.7 3.4 4 9.6 8.8 20.5 8.8h53.7l-11.4 56.6-25.2.2 8-40.2 1.7-8.3h-60.8l-1.2 5.4-10 45.8c-2.8 13.4 1 21.6 4.5 26 3.6 4.4 10.5 9.5 23.6 9.6h2.3l41.7-.1 37.5-.1c17.2 0 32-10.8 35.8-26.4v-.2c4.1-19.2 54.3-264.3 54.9-266.8l1.7-8.4h-62.7l-1 5.7-29.3 150.7-25.6.2 29.3-148 1.6-8.4h-8.5l-46.1-.2h-5.7zm139.4 0zm0 14z"/><path fill="#c00" d="M853.1 463.4l-26.6-54.8-11.8 54.7h-76.5l50.6-251.6h77l-8.9 43.9 43.5-44h97.5L885.2 327.4l62 136h-94.1z"/><path d="M989.6 215.1L881 326.7l60.8 133.2h-86.5l-30-62-13.4 62h-69.5l49.3-244.7h69.8l-10.3 51.2 50.6-51.3h87.8m16.5-7H899l-2 2-34.2 34.7 5.7-28.2 1.7-8.4h-84.2l-1 5.6-49.3 244.6-1.7 8.4h83.6l1.2-5.5 9-42L849 463l1.9 4h101.8l-4.6-10-58.7-128.9L994.6 220 1006 208zm-16.5 14z"/><path fill="#c00" d="M478.8 558.6H425.8c-7.5 0-14-2.9-18.2-7.9-3-3.4-6-9.6-4.3-19.5 2.5-13.5 10-49.4 10-49.8l.6-2.8h54l-10 49.9H489l14-65.2-59.2.2h-.1a22 22 0 0 1-17-7.5 21 21 0 0 1-4.2-17.8c1.3-7.8 7.4-39 13.9-72.2 6.5-33.5 13.2-68.1 14.3-74.7a33.8 33.8 0 0 1 31.7-27.8h116l-.9 4.2-54 264.2a35 35 0 0 1-33 26.5l-31.7.2zm33.6-146.1l20.4-101.6h-32.5L479.8 412z"/><path d="M584.7 267h9.4L540 531.2a31.7 31.7 0 0 1-29.6 23.7l-31.6.2h-53c-11 0-21.9-7.4-19-23.2 2.4-13.7 10-49.8 10-49.8h46.8l-10 49.9h38.2l15.6-72.2-63.6.2h-.1c-10.4 0-20.2-7.5-17.8-21.2 2.7-15.8 26.1-134 28.3-147a30.3 30.3 0 0 1 28.2-24.8h102.3m-69.4 149L537 307.4h-39.6l-22 108.2 39.8.4m69.4-156H482.4a37.4 37.4 0 0 0-35.1 30.7c-1 6.6-7.8 41.1-14.4 74.6L419 437.6a25 25 0 0 0 5 20.7 25.5 25.5 0 0 0 19.7 8.7h.1l55-.2-12.6 58.2h-24l8.2-41.5 1.7-8.4h-61l-1.2 5.6c-.3 1.5-7.6 36.3-10 50a26.2 26.2 0 0 0 5 22.3 27 27 0 0 0 20.9 9h53l31.7-.1a38.7 38.7 0 0 0 36.3-29.3L601 268.4l1.7-8.4h-18zm-81.5 54.4h25.3l-19 94.5-25.4-.3 19-94.2z"/><path fill="#c00" d="M205.4 211.5H340c8.7 0 15.5 2.7 19.7 7.8 4 5 5.3 12 3.6 20.4l-40 196.7c-2.2 11.5-15.3 24-27.5 26.2a105.8 105.8 0 0 1-13.4.9h-128zm55.8 200.9l29.6-144.7h-30.9l-29.2 144.7z"/><path d="M339.5 215h.5c15.3 0 23 9 20 24a107958 107958 0 0 0-40 196.7c-2 10.4-14.2 21.5-24.8 23.4a104.1 104.1 0 0 1-12.8.9H158.7l49.5-245h131.3m-113 200.9H264l31-151.7h-38l-30.6 151.7M340 208H202.5l-1.1 5.6-49.6 245-1.7 8.4h132.3a106.5 106.5 0 0 0 14-1 41.5 41.5 0 0 0 30.4-28.9c3.7-18.8 35.4-174.4 40-196.7 2.4-11.8-1-19.2-4.4-23.3-3.4-4.2-10-9.1-22.4-9.1zm-77.2 63.2h23.7l-28.2 137.7H235l27.8-137.7z"/><path fill="#c00" d="M977.9 463.6a21.6 21.6 0 0 1-16.8-7.7c-4.1-5-5.7-11.7-4.4-18.7a6301 6301 0 0 1 30.8-153.5c3-9.8 16.4-20.2 26.2-20.2H1040.6l25.3.1c14.3 0 26 0 36.7-.2h.4c8 0 14.9 2.9 19.1 8.2a25.5 25.5 0 0 1 4 21.8c-4.1 19.4-21.7 107.3-21.8 108.2l-.6 2.8H1019l-3.8 15.9h84.1l-.4 3.9c-2.5 23.7-16.4 39.2-35.4 39.3H978zm51-109.1h31.7l8.7-43.9h-31.4z"/><path d="M1103 266.9c14.7 0 23 10.6 19.8 25.8-4.3 19.6-22 108.2-22 108.2h-84.5l-5.5 22.9h84.7c-2.2 20.1-13.4 36-32 36.2h-85.6a18 18 0 0 1-17.7-22.1c4.3-22.8 27.5-142.8 30.7-153.2 2.4-8 14.3-17.7 22.8-17.7h1.6l50.6.1c12.2 0 24.5 0 36.7-.2h.4m-78.4 91.1h38.8l10.1-50.9h-38.4l-10.5 50.9m78.4-98.1h-.5l-36.6.2h-25.3l-25.3-.1h-1.6c-7.6 0-14.6 4.6-18 7.3-5.7 4.5-10 10.1-11.5 15.3-3.7 12.1-30.6 152.5-31 154-1.4 8 .4 15.6 5.2 21.5a25 25 0 0 0 19.5 9h.2l29.1-.1h56.4c20.8-.1 36.1-16.8 38.8-42.5l.8-7.7h-83.6l2.2-9h84.8l1-5.5c.3-1 17.8-88.8 22-108.1a29 29 0 0 0-4.7-24.8c-5-6.1-12.7-9.5-21.9-9.5zm-62.2 54.2h24.2l-7.3 36.8h-24.5l7.6-36.8z"/><path fill="#c00" d="M335.9 463l39.4-199.3h63.2L398.2 463h-62.3z"/><path d="M434.2 267.2l-38.9 192.3h-55.1l38-192.3h56m8.5-7h-70.3l-1.1 5.6-38 192.4-1.6 8.3H401l1.2-5.6L441 268.6l1.7-8.4zm-8.5 14z"/><path fill="#c00" d="M576.5 463.3l40.3-199.6h62.5L639 463.3h-62.5z"/><path d="M675 267.2l-39 192.6h-55.2l38.9-192.6H675m8.6-7h-69.7l-1 5.6-39 192.6-1.7 8.4h69.6l1.2-5.6 38.9-192.6 1.7-8.4zm-8.6 14z"/><path fill="#c00" d="M669.5 404.3l15-75.6h62.7l-15.5 75.6h-62.2z"/><path d="M742.9 332.2l-14 68.6h-55.1l13.5-68.6H743m8.6-7h-70l-1 5.6-13.6 68.6-1.7 8.4h69.4l1.1-5.6 14-68.6 1.8-8.4zm-8.6 14z"/><path fill="#c00" d="M377.2 250.3l7.9-38.6h64l-8.3 38.6h-63.6z"/><path d="M444.7 215.2l-6.7 31.6h-56.5l6.5-31.6h56.7m8.7-7h-71.1l-1.2 5.6-6.5 31.6-1.7 8.4h70.8l1.2-5.6 6.7-31.5 1.8-8.5zm-8.7 14z"/><path fill="#c00" d="M619.4 250.3l9.1-38.6h61.2l-8 38.6h-62.3z"/><path d="M685.4 215.2l-6.6 31.6h-55l7.4-31.6h54.2m8.6-7h-68.3l-1.3 5.4-7.4 31.6-2 8.6h69.5l1.2-5.5 6.5-31.7 1.8-8.4zm-8.6 14z"/></g><g><path d="M640 502.8l-2.9 13H617l-2.3 10.3h18.8l-2.8 12.4h-18.8l-2.8 12h21l-3 13h-36.7l13.7-60.7zM661 502.8l-10.8 47.7h19.5l-3 13h-35.2l13.7-60.7zM719 502.8l-2.8 13H696l-2.4 10.3h18.9l-2.8 12.4h-18.9l-2.7 12h20.9l-3 13h-36.6l13.7-60.7zM744.5 514.2a2.7 2.7 0 0 0-2.9-1.9 5 5 0 0 0-3 1 8.3 8.3 0 0 0-2.4 3.3 42 42 0 0 0-2.2 6.4l-2.4 10.1-2.2 10.2a36.1 36.1 0 0 0-.7 6.4 5 5 0 0 0 .9 3.3 3.4 3.4 0 0 0 2.6 1 4.5 4.5 0 0 0 2.5-.8 6.3 6.3 0 0 0 2-2.4 26.2 26.2 0 0 0 1.8-4.6l1.8-7.1h15.3l-1 4.5a32.6 32.6 0 0 1-4 10.4 22.6 22.6 0 0 1-6 6.4 19.3 19.3 0 0 1-7.2 3.1 36.5 36.5 0 0 1-7.6.9 28 28 0 0 1-10.5-1.7 9.5 9.5 0 0 1-5.4-5.3 21.9 21.9 0 0 1-1-9.8 103.4 103.4 0 0 1 2.4-14.5 97.3 97.3 0 0 1 4.3-14.7 32.3 32.3 0 0 1 5.9-9.7 19.7 19.7 0 0 1 7.9-5.4 31 31 0 0 1 10.6-1.7 24.1 24.1 0 0 1 8.8 1.4 11.2 11.2 0 0 1 5.2 3.9 11.8 11.8 0 0 1 2 6 27.1 27.1 0 0 1-.7 8l-.9 3.7h-15.3l.8-3.4q1.2-5.1.6-7zM762.2 516.2l3-13.4h39.4l-3 13.4h-12L779 563.4h-15.8l10.7-47.2zM831.8 502.8a19.8 19.8 0 0 1 7.4 1.2 9.6 9.6 0 0 1 4.4 3.4 10.1 10.1 0 0 1 1.8 5.1 24.5 24.5 0 0 1-5.3 16.3 14.3 14.3 0 0 1-9 4.6v.1q5.6.6 7 4t-.1 9.6l-1.2 5.2-.5 2.5-.5 2.4a19.1 19.1 0 0 0-.2 2 5 5 0 0 0 0 1.5l.6 1a2.4 2.4 0 0 0 .9.9l-.2.8H820a9.2 9.2 0 0 1-.3-2.8 30.6 30.6 0 0 1 .3-3.2l.5-3.1.5-2.4 1-4.1a30.5 30.5 0 0 0 .7-4.2 5.8 5.8 0 0 0-.3-2.7 2.5 2.5 0 0 0-1.3-1.4 6 6 0 0 0-2.4-.4h-4.1l-5.5 24.3h-15.8l13.7-60.6zm-11.6 25.7a7.5 7.5 0 0 0 5.5-2 10.2 10.2 0 0 0 2.8-5.3q.8-3.8-.4-5.4t-4.7-1.6h-3l-3.3 14.3zM849.3 518.7a33.4 33.4 0 0 1 5.9-9.8 20.4 20.4 0 0 1 8-5.5 29.6 29.6 0 0 1 10.5-1.8 23.5 23.5 0 0 1 9.8 1.8 10.7 10.7 0 0 1 5.4 5.5 21.8 21.8 0 0 1 1.5 9.8 83.2 83.2 0 0 1-2.2 14.4 92 92 0 0 1-4.4 14.5 33.4 33.4 0 0 1-5.8 9.8 19.2 19.2 0 0 1-8 5.3 31.4 31.4 0 0 1-10.5 1.7 25.3 25.3 0 0 1-9.8-1.7 10.2 10.2 0 0 1-5.5-5.3 21.8 21.8 0 0 1-1.4-9.8 83 83 0 0 1 2.1-14.5 91.8 91.8 0 0 1 4.4-14.4zm9.8 24.6a36.1 36.1 0 0 0-.7 6.4 5 5 0 0 0 .8 3.3 3.4 3.4 0 0 0 2.7 1 5 5 0 0 0 3-1 8.4 8.4 0 0 0 2.4-3.3 42.1 42.1 0 0 0 2.2-6.4l2.4-10.2q1.4-6.2 2.1-10.1a36.4 36.4 0 0 0 .8-6.4 5 5 0 0 0-.9-3.3 3.4 3.4 0 0 0-2.6-1 5 5 0 0 0-3 1 8.3 8.3 0 0 0-2.4 3.3 41.9 41.9 0 0 0-2.2 6.4q-1.1 4-2.5 10.1t-2.1 10.2zM917 502.8l1.7 37.4h.1l8.5-37.4H942l-13.7 60.6H911l-2-37.4h-.2l-8.5 37.4h-14.7l13.7-60.6zM963.5 502.8l-13.7 60.6H934l13.7-60.6zM990 514.2a2.7 2.7 0 0 0-2.8-1.9 5 5 0 0 0-3 1 8.4 8.4 0 0 0-2.4 3.3 42 42 0 0 0-2.2 6.4l-2.4 10.1-2.2 10.2a36.1 36.1 0 0 0-.7 6.4 5 5 0 0 0 .9 3.3 3.4 3.4 0 0 0 2.6 1 4.5 4.5 0 0 0 2.5-.8 6.3 6.3 0 0 0 2-2.4 26 26 0 0 0 1.8-4.6l1.8-7.1h15.3l-1 4.5a32.5 32.5 0 0 1-4 10.4 22.5 22.5 0 0 1-6 6.4 19.3 19.3 0 0 1-7.1 3.1 36.6 36.6 0 0 1-7.7.9 28 28 0 0 1-10.5-1.7 9.5 9.5 0 0 1-5.4-5.3 21.9 21.9 0 0 1-1-9.8 103.5 103.5 0 0 1 2.4-14.5 97.5 97.5 0 0 1 4.3-14.7 32.3 32.3 0 0 1 5.9-9.7 19.7 19.7 0 0 1 7.9-5.4 31 31 0 0 1 10.6-1.7 24.1 24.1 0 0 1 8.8 1.4 11.2 11.2 0 0 1 5.2 3.9 11.8 11.8 0 0 1 2 6 27.1 27.1 0 0 1-.7 8l-.9 3.7h-15.2l.7-3.4q1.2-5.1.6-7zM1033.8 518.9a8.4 8.4 0 0 0 0-4.7 2.8 2.8 0 0 0-3-1.9 5.4 5.4 0 0 0-4.1 1.7 7.8 7.8 0 0 0-2 3.7 5 5 0 0 0 .8 4.7 12.9 12.9 0 0 0 4 3l5.7 2.6a20.7 20.7 0 0 1 5.4 3.4 12.4 12.4 0 0 1 3.6 5.6q1 3.4-.2 9-2.1 9.6-8.6 14t-17 4.4a39.4 39.4 0 0 1-8.5-.9 12 12 0 0 1-5.7-2.8 9.4 9.4 0 0 1-2.8-5.2 19.8 19.8 0 0 1 .4-8l.5-2h15.3l-.3 1.4q-1 3.9.2 5.4a3.8 3.8 0 0 0 3.4 1.6 5.7 5.7 0 0 0 4.1-1.7 8.4 8.4 0 0 0 2.3-4.1 5.3 5.3 0 0 0-.8-4.8 11.7 11.7 0 0 0-3.9-3l-5.4-2.4a19.5 19.5 0 0 1-5.2-3.3 11.9 11.9 0 0 1-3.4-5.4q-1.1-3.3.1-8.6 2.1-9.3 8.1-14.1t16-4.9q10.4 0 14 4.5t1.4 14.2h-14.7z"/></g><g><path d="M1324.3 271.7a17.2 17.2 0 0 1 1.4-7 17.8 17.8 0 0 1 9.4-9.4 17.8 17.8 0 0 1 13.9 0 17.8 17.8 0 0 1 9.4 9.5 17.8 17.8 0 0 1 0 13.8 17.8 17.8 0 0 1-9.4 9.4 17.8 17.8 0 0 1-13.9 0 17.8 17.8 0 0 1-9.4-9.4 17.2 17.2 0 0 1-1.4-7zm32 0a14.2 14.2 0 0 0-1.2-5.6 14.9 14.9 0 0 0-3-4.7 14.4 14.4 0 0 0-4.5-3 13.9 13.9 0 0 0-11 0 14.4 14.4 0 0 0-4.6 3 14.9 14.9 0 0 0-3 4.7 14.7 14.7 0 0 0 0 11.2 14.9 14.9 0 0 0 3 4.6 14.3 14.3 0 0 0 4.5 3.1 13.9 13.9 0 0 0 11 0 14.3 14.3 0 0 0 4.6-3 14.9 14.9 0 0 0 3-4.7 14.2 14.2 0 0 0 1.2-5.6zm-21 10.3v-20.6h7.9q7 0 7 5.8a6.7 6.7 0 0 1-.3 2.5 4.7 4.7 0 0 1-1.2 1.7 5.2 5.2 0 0 1-1.7 1 9 9 0 0 1-2 .6l6 9h-4l-6-9h-2.4v9zm3.3-17.7v5.8h3.6a7.2 7.2 0 0 0 3.6-.7 2.5 2.5 0 0 0 1.2-2.4 2.3 2.3 0 0 0-1-2 5 5 0 0 0-2.7-.7z"/></g></g></svg>
