<svg xmlns="http://www.w3.org/2000/svg" viewBox="0 0 24 23.51"><path fill="#ccc" d="M22 9.755H6.828l6.341-6.341A2 2 0 0 0 10.341.586L.586 10.341c-.011.01-.018.023-.029.034a2 2 0 0 0-.218.267c-.023.034-.038.071-.058.106a2.085 2.085 0 0 0-.127.238c-.018.043-.027.09-.042.135a2.111 2.111 0 0 0-.072.238 1.975 1.975 0 0 0 0 .791 2 2 0 0 0 .073.243c.015.043.024.089.041.131a1.934 1.934 0 0 0 .134.25c.018.03.031.064.05.093a2 2 0 0 0 .248.3l9.755 9.755a2 2 0 0 0 2.828-2.822l-6.341-6.34H22a2 2 0 0 0 0-4z"/></svg>