<svg xmlns="http://www.w3.org/2000/svg" viewBox="0 0 48 48"><g fill="#009FBD"><path d="M22.5 40.2c-3.7 0-6.7-3-6.7-6.7 0-2.5 1.4-4.8 3.6-6V10.9v-.3c.2-1.6 1.5-2.8 3.1-2.8s3 1.2 3.1 2.8V27.5c2.2 1.2 3.6 3.5 3.6 6 0 3.7-3 6.7-6.7 6.7z"/><path d="M22.4 8.3c1.4 0 2.5 1 2.6 2.4v17.2c2.1 1 3.6 3.2 3.6 5.7 0 3.4-2.8 6.2-6.2 6.2-3.4 0-6.2-2.8-6.2-6.2 0-2.5 1.5-4.6 3.6-5.6V10.9v-.3c.1-1.3 1.3-2.3 2.6-2.3m0-1c-1.9 0-3.4 1.4-3.6 3.3v16.7c-2.2 1.3-3.6 3.7-3.6 6.2 0 4 3.2 7.2 7.2 7.2s7.2-3.2 7.2-7.2c0-2.6-1.4-5-3.6-6.3V10.9v-.4c-.1-1.8-1.7-3.2-3.6-3.2z"/></g><path fill="#FFF" d="M27 33.3c0 2.5-2 4.5-4.5 4.5s-4.5-2-4.5-4.5c0-2.1 1.4-3.9 3.4-4.4V18.2h2.4V29c1.8.5 3.2 2.3 3.2 4.3z"/><path fill="#009FBD" stroke="#009FBD" stroke-width=".25" stroke-miterlimit="10" d="M31.8 13.9c0 .3-.2.6-.5.6h-2.8c-.3 0-.5-.3-.5-.6h0c0-.3.2-.6.5-.6h2.8c.2.1.5.3.5.6h0zM31.8 17c0 .3-.2.6-.5.6h-2.8c-.3 0-.5-.3-.5-.6h0c0-.3.2-.6.5-.6h2.8c.2 0 .5.3.5.6h0zM31.8 20c0 .3-.2.6-.5.6h-2.8c-.3 0-.5-.3-.5-.6h0c0-.3.2-.6.5-.6h2.8c.2.1.5.3.5.6h0zM31.8 23.1c0 .3-.2.6-.5.6h-2.8c-.3 0-.5-.3-.5-.6h0c0-.3.2-.6.5-.6h2.8c.2 0 .5.3.5.6h0z"/></svg>