<svg xmlns="http://www.w3.org/2000/svg" viewBox="0 0 32 38"><g data-name="Layer 2"><path fill="none" d="M0 0h32v38H0z"/><g fill="none" stroke="#fff" stroke-miterlimit="10" stroke-width="1.5"><path d="M27 18l-12.5 4L5 16"/><path stroke-linecap="round" d="M27 18l3 5.245L18 27.5 14.5 22M14.5 22l-3 5L2 20.5 5 16"/><path d="M5 22.5v7l9.5 7 12.5-5V24M14.5 22v14.5"/><path stroke-linecap="round" d="M27 18l-5.5-2.5M5 16l4.5-1"/></g><path d="M23.5 9l-1.41 1.41-5.59-5.58V17h-2V4.83l-5.58 5.59L7.5 9l8-8z" fill="#fff"/></g></svg>