<svg xmlns="http://www.w3.org/2000/svg" viewBox="0 0 48 48"><path fill="#FFF" d="M24.5 43.6C13.9 43.6 5.3 35 5.3 24.4S13.9 5.2 24.5 5.2s19.2 8.6 19.2 19.2c0 10.5-8.6 19.2-19.2 19.2z"/><path fill="#009FBD" d="M24.5 6.1c10.1 0 18.2 8.2 18.2 18.2 0 10.1-8.2 18.2-18.2 18.2S6.2 34.4 6.2 24.3c0-10 8.2-18.2 18.3-18.2m0-2c-11.2 0-20.2 9.1-20.2 20.2 0 11.2 9.1 20.2 20.2 20.2 11.2 0 20.2-9.1 20.2-20.2S35.6 4.1 24.5 4.1z"/><path fill="none" stroke="#009FBD" stroke-width="1.88" stroke-miterlimit="10" d="M24.5 9.1c-8.2 0-14.9 6.6-15 14.8H39.5c-.1-8.2-6.8-14.8-15-14.8z"/><ellipse fill="#FFF" cx="24.3" cy="25" rx="12.5" ry="12.1"/><path fill="#FFF" stroke="#009FBD" stroke-width="1.936" stroke-miterlimit="10" d="M10.3 28h28.1"/><path fill="#FFF" stroke="#009FBD" stroke-width="1.867" stroke-miterlimit="10" d="M21.2 32.3L24.5 17l3.3 15.3z"/><path fill="#FFF" d="M24.5 37c-1.9 0-3.4-1.6-3.4-3.5s1.5-3.5 3.4-3.5 3.4 1.6 3.4 3.5c0 2-1.5 3.5-3.4 3.5z"/><path fill="#009FBD" d="M24.5 31.2c1.2 0 2.2 1 2.2 2.3 0 1.3-1 2.3-2.2 2.3-1.2 0-2.2-1-2.2-2.3 0-1.2 1-2.3 2.2-2.3m0-2.3C22 28.9 20 31 20 33.5c0 2.5 2 4.6 4.5 4.6S29 36 29 33.5c0-2.5-2-4.6-4.5-4.6z"/><path fill="#FFF" stroke="#009FBD" stroke-width="2" stroke-miterlimit="10" d="M11.1 16.5l2.2 1.1M16.2 10.8l1.5 2.1M37.8 16.5l-2.1 1.1M32.6 10.7l-1.5 2"/><path fill="#FFF" stroke="#009FBD" stroke-width="1.993" stroke-miterlimit="10" d="M24.5 9v2.7"/></svg>