<svg xmlns="http://www.w3.org/2000/svg" viewBox="0 0 120 120"><g data-name="Layer 2"><path opacity=".6" d="M0 0h120v120H0z"/><g fill="#fff"><path d="M37.622 94.965v-12.1h4.9a3.918 3.918 0 0 1 1.507.274 3.087 3.087 0 0 1 1.133.784 3.5 3.5 0 0 1 .714 1.229 4.873 4.873 0 0 1 .249 1.606 4.469 4.469 0 0 1-.274 1.606 3.66 3.66 0 0 1-.755 1.224 3.342 3.342 0 0 1-1.142.784 3.639 3.639 0 0 1-1.432.279h-2.759v4.316zm4.491-6.25a1.707 1.707 0 0 0 .684-.146 2.058 2.058 0 0 0 .607-.4 1.948 1.948 0 0 0 .431-.619 1.9 1.9 0 0 0 .165-.79 2.275 2.275 0 0 0-.133-.786 1.785 1.785 0 0 0-.382-.624 1.718 1.718 0 0 0-.6-.407 1.97 1.97 0 0 0-.772-.146h-2.35v3.918zM50.437 94.965v-12.1h2.142v10.167h4.831v1.933zM68.607 94.965l-.83-2.789h-4.3l-.831 2.789h-2.282l3.926-12.1h2.674l3.926 12.1zm-2.971-9.928l-1.561 5.206h3.1zM76.31 94.965v-4.947l-3.926-7.155h2.449l2.548 4.93 2.548-4.93h2.449l-3.926 7.155v4.947zM42.8 29.035l34.044 19.059L42.8 67.152V29.035m0-4a4 4 0 0 0-4 4v38.117a4 4 0 0 0 5.953 3.491L78.8 51.584a4 4 0 0 0 0-6.981L44.752 25.544a3.993 3.993 0 0 0-1.953-.509z"/></g></g></svg>